inDegrees=yes
name=ik_tiny_file
DataType=double
version=3
OpenSimVersion=4.4-2022-07-23-0e9fedc
endheader
time	pelvis_tilt	pelvis_list	pelvis_rotation	pelvis_tx	pelvis_ty	pelvis_tz	hip_flexion_r	hip_adduction_r	hip_rotation_r	knee_angle_r	knee_angle_r_beta	ankle_angle_r	subtalar_angle_r	mtp_angle_r	hip_flexion_l	hip_adduction_l	hip_rotation_l	knee_angle_l	knee_angle_l_beta	ankle_angle_l	subtalar_angle_l	mtp_angle_l	lumbar_extension	lumbar_bending	lumbar_rotation	arm_flex_r	arm_add_r	arm_rot_r	elbow_flex_r	pro_sup_r	wrist_flex_r	wrist_dev_r	arm_flex_l	arm_add_l	arm_rot_l	elbow_flex_l	pro_sup_l	wrist_flex_l	wrist_dev_l
0	0	0	0	0	0.9399999999999999	0	0	0	0	0	0	0	0	0	0	0	0	0	0	0	0	0	0	0	0	0	0	0	0	0	0	0	0	0	0	0	0	0	0
0.02	0.1645229515937493	-0.08206952601423738	-0.01302182188753812	0	0.9399999999999999	0	8.45603372263618	-4.152116406423553	0	49.30778364884058	0.8605831715332916	-0.9248107392442879	0	0	8.45603372263618	-4.152116406423553	0	49.30778364884058	0.8605831715332916	-0.9248107392442879	0	0	-0.1239023616424947	0.0346319365114007	0.01575020211523319	-0.3075106582929412	-0.08175651875468988	-0.01691688655326348	0.6076957257507071	49.45242780406518	0	3.07572115746844	-0.2540493537324204	-0.05171694956265971	-0.006946342588007451	0.54756114801628	49.45242780406518	0	3.07572115746844
0.04	0.3145901749034239	-0.1509957551589495	-0.01633253582821539	0	0.9399999999999999	0	8.462548715785026	-4.154944972862903	0	49.30898003894204	0.8606040524797003	-0.9255853653813741	0	0	8.462548715785026	-4.154944972862903	0	49.30898003894204	0.8606040524797003	-0.9255853653813741	0	0	-0.2088938032943261	0.05452560271632263	0.02504818221920561	-0.3489429762566242	-0.09559775129273988	-0.02699171084929762	0.60363466476753	49.45074068449623	0	3.07733686908117	-0.2407577884055002	-0.05188232609575533	-0.02510586989510246	0.5205609097518398	49.45074068449623	0	3.07733686908117
0.06	0.4650014404216021	-0.2260170951316532	-0.02638358857682614	0	0.9399999999999999	0	8.469029127945163	-4.157753846108782	0	49.31017359609131	0.8606248839817658	-0.9263562631061046	0	0	8.469029127945163	-4.157753846108782	0	49.31017359609131	0.8606248839817658	-0.9263562631061046	0	0	-0.3181654584682349	0.07807306347531268	0.03142135215105422	-0.3719684385519422	-0.06443110239144574	0.003538729008094897	0.6108739085574664	49.44906429586862	0	3.078939187026712	-0.2443012132635335	0.007564649424207331	0.01254549370968247	0.5020315428840465	49.44906429586862	0	3.078939187026712
0.08	0.6195163305405486	-0.2908507159141282	-0.02825508656387732	0	0.9399999999999999	0	8.476060207516039	-4.160802882641228	0	49.31146691003686	0.8606474565683776	-0.92719257746244	0	0	8.476060207516039	-4.160802882641228	0	49.31146691003686	0.8606474565683776	-0.92719257746244	0	0	-0.4339043981221698	0.1041396848840271	0.05085500920240738	-0.3923926227384372	-0.0675901974050941	-0.01298379064277602	0.6142968930770486	49.44724477813959	0	3.080678686449944	-0.2246968199620067	0.0463876599944607	0.02612573098893852	0.4717738507289132	49.44724477813959	0	3.080678686449944
0.1	0.7605139665632071	-0.3465205999280606	-0.03427569561843043	0	0.9399999999999999	0	8.490661156984579	-4.167168266981573	0	49.31412253962792	0.860693806048455	-0.9289267666248089	0	0	8.490661156984579	-4.167168266981573	0	49.31412253962792	0.860693806048455	-0.9289267666248089	0	0	-0.5818796165442596	0.1402468704556807	0.1438431425553605	-0.3626393258364927	-0.1031507802749625	-0.07212316957442058	0.630830927791677	49.44345256717394	0	3.084321448253815	-0.1287413743609606	0.09688986194501237	0.084366044154667	0.4355725949210223	49.44345256717394	0	3.084321448253815
0.12	0.8718533212187722	-0.3874448602828542	-0.05460146956339729	0	0.9399999999999999	0	9.935813549930749	-4.738281563482462	0	49.59817076818542	0.8656513828712408	-1.108757757614226	0	0	9.935813549930749	-4.738281563482462	0	49.59817076818542	0.8656513828712408	-1.108757757614226	0	0	-0.6379372378290493	0.1775552474357334	0.2771410254164376	-0.4087893217325974	-0.1516082012111376	-0.1397162020693017	0.6397980464366668	49.08482898201261	0	3.368810547325234	-0.1310149081894089	0.1454629732203992	0.2609880752555556	0.428533885880314	49.08482898201261	0	3.368810547325234
0.14	0.9647576664924843	-0.4694980208295652	-0.06048235148289202	0	0.9399999999999999	0	11.17393225270778	-5.205687239375703	0	49.84756818325805	0.870004188910221	-1.264168260383111	0	0	11.17393225270778	-5.205687239375703	0	49.84756818325805	0.870004188910221	-1.264168260383111	0	0	-0.6644222559004961	0.2376836236801391	0.3530971121637538	-0.4715085023789987	-0.1453832999806169	-0.1680933816028445	0.6480619412270777	48.78598623814558	0	3.589697363386144	-0.1650804032880834	0.1520349160278229	0.4022205216610367	0.4085625380343688	48.78598623814558	0	3.589697363386144
0.16	1.085912393195165	-0.5206854246815371	-0.07337596479502836	0	0.9399999999999999	0	12.37601918760855	-5.641837505428811	0	50.09459223740476	0.874315571986706	-1.416045293736661	0	0	12.37601918760855	-5.641837505428811	0	50.09459223740476	0.874315571986706	-1.416045293736661	0	0	-0.7451702503734201	0.259747668166817	0.35335419547659	-0.5068352683187104	-0.158866284197523	-0.1576299443057783	0.6601279344150617	48.50284214497309	0	3.786793791288657	-0.1694208495162213	0.1591217134534168	0.3974087683910242	0.3921178089977114	48.50284214497309	0	3.786793791288657
